<svg xmlns="http://www.w3.org/2000/svg" viewBox="0 0 102.2 118.01"><defs><style>.cls-1{fill:#39baed;}.cls-2{fill:none;}.cls-3{fill:#1d5d77;}.cls-4{fill:#fff;}.cls-5{fill:#9eddf6;}.cls-6{fill:#8ed8f5;}.cls-7{fill:#61c8f1;}.cls-8{fill:#d7f1fb;}</style></defs><title>Asset 3</title><g id="Layer_2" data-name="Layer 2"><g id="Logos"><g id="_Group_logo_small_" data-name="&lt;Group logo small&gt;"><path class="cls-1" d="M51.07,6.47,5.57,32.73V85.27L17.25,92l8.53-1.32-.93-6.34s2.57-3.16,2.86-5.33c.16-1.18.27-2,.31-2.73,0,0,0-.09,0-.13A6.81,6.81,0,0,0,28,74.65c-.18-1.15-1.28-3.65-.7-5.47,0-.16.12-.3.18-.46a3.72,3.72,0,0,1-.41.19c-.53.13-1,.45-1.53.58a13.46,13.46,0,0,0-1.54.42c-1,.35-2,.45-2.95.81L20.4,71a.15.15,0,0,1-.13,0s-.06-.07-.1-.09-.27.12-.42.15-.33-.22-.52-.2-.15.07-.23.05-.13-.11-.2-.13a.41.41,0,0,0-.16,0,.6.6,0,0,1-.7-.38,1.26,1.26,0,0,1-1.11-.21,2.72,2.72,0,0,1-.24-.24c-.26-.26-.54-.52-.81-.77l0,0-.6-.55a1.41,1.41,0,0,0-.37-.27.55.55,0,0,1-.24-.12.82.82,0,0,1-.12-.2,1,1,0,0,0-.31-.28,1.76,1.76,0,0,1-.51-.75c-.37-.13-.46-.44-.68-.7-.06-.07-.21,0-.25-.1s.12-.32.31-.37a2,2,0,0,1,1.06,0,2.8,2.8,0,0,1,.28.06,28.14,28.14,0,0,1,3.07,1.79,6.16,6.16,0,0,0,3.62,1,20.39,20.39,0,0,0,3.76-1c.8-.26,5.4-2.54,6.19-2.82h0l.11,0a8.19,8.19,0,0,1,2-.5l2.82-.6s5-.72,6.67-1.13A8.29,8.29,0,0,0,45,61.58a15.15,15.15,0,0,0,2.09-1.35L47.4,60l.08-.07a13.52,13.52,0,0,0,1.6-1.54,9.92,9.92,0,0,0,1.14-1.84l.64-1.39c.53-1.24.89-2.31.89-2.31a12.93,12.93,0,0,1,.86-1.61l-.64.55a.81.81,0,0,1-.46.23.12.12,0,0,1-.12,0c0-.06,0-.14,0-.2a3.32,3.32,0,0,0-.08-.94,1.31,1.31,0,0,1,.6-1.1,2.61,2.61,0,0,1,1.22-.41c.4-.05.81-.05,1.21-.08a2.66,2.66,0,0,1,1-.5,6.89,6.89,0,0,1,3.12-.18,1.86,1.86,0,0,0,1.24,1.38,33.41,33.41,0,0,0,4.9.64S65,53.31,63.82,54s-3.76.6-4.48,1a12.53,12.53,0,0,0-1.72,1.06,4.81,4.81,0,0,0-.78,1.07c0,.06-.05.13-.07.2l-.26,1.4c0,.37,0,.73.06,1.09V60l0,.28c.31,3.09,1.34,5.86-.17,8.77,0,0-3.5,5.45-3.85,7.3a27,27,0,0,0-.34,7.88A9.8,9.8,0,0,0,53,86.47L63.3,88.24l.12,0L85,92l11.61-6.7V32.73ZM21.51,80.4Zm1-47.88Z"/><path class="cls-1" d="M49,79c-.22-1.23-.76-4.2-.76-4.2A17.79,17.79,0,0,1,44.43,74a15.12,15.12,0,0,0-2.66-1,12.66,12.66,0,0,0-2.85.16,6,6,0,0,0-.92.11,2.53,2.53,0,0,0-1.39.72c-.35.43-1.87,2.32-3.62,4.44-1.55,1.89-3.29,4-4.52,5.35-1.86,2.09-1,5-.34,6.47l12.36-1.92,4.12-.64,6-.92-.88-3.27C49.52,82,49.31,80.48,49,79Z"/><polygon class="cls-2" points="5.6 32.74 5.6 85.28 51.1 111.54 96.6 85.28 96.6 32.74 51.1 6.47 5.6 32.74"/><g id="_Group_" data-name="&lt;Group&gt;"><path class="cls-3" d="M49.6,117.15l1.5.86,1.5-.86,48.1-27.78,1.5-.86v-59l-1.5-.86L52.6.87,51.1,0,49.6.87,1.5,28.64,0,29.5v59l1.5.86ZM3,31.23,51.1,3.46,99.2,31.23V86.78L51.1,114.55,3,86.78Z"/><path class="cls-4" d="M51.1,3.46,3,31.23V86.78l48.1,27.77L99.2,86.78V31.23ZM28.47,83.86c2.61-2.93,7.48-9,8.14-9.78a3.53,3.53,0,0,1,2.31-.84,12.66,12.66,0,0,1,2.85-.16,16,16,0,0,1,2.66,1,17.79,17.79,0,0,0,3.85.71s.54,3,.76,4.2c.27,1.53.48,3.08.64,4.63l.88,3.27L28.13,90.33C27.48,88.84,26.61,86,28.47,83.86ZM96.6,85.27,85,92,53,86.47a9.8,9.8,0,0,1-.77-2.29,26.94,26.94,0,0,1,.34-7.87c.35-1.86,3.85-7.31,3.85-7.31,1.74-3.35.11-6.52.08-10.21l.26-1.4c0-.07,0-.14.07-.2a4.81,4.81,0,0,1,.78-1.07,11.7,11.7,0,0,1,1.72-1c.72-.43,3.34-.29,4.48-1s.79-3.5.79-3.5a33.75,33.75,0,0,1-4.9-.65,1.85,1.85,0,0,1-1.24-1.37,6.77,6.77,0,0,0-3.12.17,2.81,2.81,0,0,0-1,.5c-.4,0-.81,0-1.21.08a2.61,2.61,0,0,0-1.22.41,1.31,1.31,0,0,0-.6,1.1,3.32,3.32,0,0,1,.08.94c0,.07,0,.14,0,.2a.12.12,0,0,0,.12,0,.7.7,0,0,0,.46-.23l.64-.55a12.93,12.93,0,0,0-.86,1.61s-.36,1.07-.89,2.31l-.64,1.39a9.6,9.6,0,0,1-1.14,1.84A14.2,14.2,0,0,1,45,61.58a8.29,8.29,0,0,1-2.39.93c-1.64.41-6.67,1.13-6.67,1.13l-2.82.6a8.74,8.74,0,0,0-2,.5l-.11,0h0c-.79.28-5.39,2.56-6.19,2.82a20.39,20.39,0,0,1-3.76,1,6.08,6.08,0,0,1-3.62-1,28.14,28.14,0,0,0-3.07-1.79,2.12,2.12,0,0,0-1.34,0c-.19,0-.38.16-.31.37s.19,0,.25.1c.22.26.31.57.68.7a1.71,1.71,0,0,0,.51.75,1.19,1.19,0,0,1,.31.28.67.67,0,0,0,.12.2.7.7,0,0,0,.24.13,1.37,1.37,0,0,1,.37.26l.65.6c.27.25.55.51.81.78a2.61,2.61,0,0,0,.24.23,1.23,1.23,0,0,0,1.11.21.59.59,0,0,0,.7.38.41.41,0,0,1,.16,0c.07,0,.12.11.2.13s.15,0,.23,0,.33.22.52.19.3-.25.42-.15.06.08.1.09a.15.15,0,0,0,.13,0l.61-.23c1-.36,2-.45,2.95-.81a13.46,13.46,0,0,1,1.54-.42c.54-.13,1-.45,1.53-.57l.41-.2c-.06.16-.13.3-.18.46-.58,1.82.52,4.32.7,5.47A14.76,14.76,0,0,1,27.71,79c-.29,2.17-2.86,5.33-2.86,5.33l.93,6.34L17.27,92,5.6,85.27V32.74L51.1,6.47,96.6,32.74Z"/></g><polygon class="cls-5" points="22.51 32.52 22.51 32.52 22.51 32.52 22.51 32.52 22.51 32.52 31.9 40.28 51.69 16.69 51.69 16.69 74.03 45.2 78.77 40.25 78.77 40.25 78.77 40.25 78.77 40.25 78.77 40.25 87.24 49.13 91.93 45.53 91.93 45.53 96.57 48.73 96.57 32.74 51.07 6.47 5.57 32.74 5.57 44.36 8.57 46.64 22.51 32.52"/><path class="cls-6" d="M27.71,79c.16-1.17.27-2,.31-2.73l-6.5,4.11h0L8.68,68.2,5.57,70.56V85.27L17.25,92l8.53-1.33-.93-6.34S27.42,81.19,27.71,79Z"/><polygon class="cls-6" points="91.93 74.4 91.93 74.4 86.48 70.22 78.77 79.68 74.03 74.72 63.42 88.27 84.96 91.97 96.57 85.28 96.57 71.19 91.93 74.4"/><path class="cls-6" d="M28.47,83.86c-1.86,2.09-1,5-.34,6.47l12.36-1.92L33,78.51C31.44,80.4,29.7,82.48,28.47,83.86Z"/><polygon class="cls-7" points="21.51 80.4 21.52 80.4 21.51 80.4 21.51 80.4"/><polygon class="cls-7" points="78.77 79.68 78.77 79.68 78.77 79.68 78.77 79.68"/><polygon class="cls-8" points="78.77 40.25 78.77 40.25 78.77 40.25 78.77 40.25"/><polygon class="cls-8" points="22.51 32.52 22.51 32.52 22.51 32.52 22.51 32.52"/><polygon class="cls-8" points="77.15 49.17 78.77 40.25 74.03 45.2 77.15 49.17"/><polygon class="cls-8" points="37.81 45.17 51.69 16.69 31.9 40.28 37.81 45.17"/><polygon class="cls-8" points="87.24 49.13 90.01 52.03 91.93 45.53 87.24 49.13"/><polygon class="cls-8" points="13.42 50.32 22.51 32.52 8.57 46.64 13.42 50.32"/><polygon class="cls-7" points="21.51 80.4 21.51 80.4 21.51 80.4 21.51 80.4"/><polygon class="cls-7" points="78.77 79.68 78.77 79.68 78.77 79.68 78.77 79.68"/><path class="cls-7" d="M49,79c-.22-1.23-.76-4.2-.76-4.2A17.79,17.79,0,0,1,44.43,74a16,16,0,0,0-2.66-1,12.66,12.66,0,0,0-2.85.16,5.37,5.37,0,0,0-.92.12,2.41,2.41,0,0,0-1.39.72c-.35.43-1.87,2.31-3.62,4.43l7.5,9.9,4.12-.63,6-.93-.88-3.27C49.52,82,49.31,80.48,49,79Z"/><path class="cls-7" d="M56.57,60l0,.28c.31,3.09,1.34,5.86-.17,8.77,0,0-3.5,5.45-3.85,7.31a26.94,26.94,0,0,0-.34,7.87A9.8,9.8,0,0,0,53,86.47L63.3,88.25l.12,0L74,74.72l4.74,5,7.72-9.46,5.44,4.18h0l4.64-3.21V60Z"/><path class="cls-7" d="M35.91,63.64s5-.72,6.67-1.13A8.29,8.29,0,0,0,45,61.58a15.15,15.15,0,0,0,2.09-1.35L47.4,60H5.57V70.56L8.68,68.2,21.51,80.4h0L28,76.29s0-.08,0-.13A6.81,6.81,0,0,0,28,74.65c-.18-1.15-1.28-3.65-.7-5.47,0-.16.12-.3.18-.46l-.41.2c-.53.12-1,.44-1.53.57a13.46,13.46,0,0,0-1.54.42c-1,.36-2,.45-2.95.81L20.4,71a.15.15,0,0,1-.13,0s-.06-.06-.1-.09-.27.12-.42.15-.33-.21-.52-.19-.15.06-.23,0-.13-.11-.2-.13a.41.41,0,0,0-.16,0,.59.59,0,0,1-.7-.38,1.23,1.23,0,0,1-1.11-.21,2.61,2.61,0,0,1-.24-.23c-.26-.27-.54-.53-.81-.78l0,0-.6-.56a1.37,1.37,0,0,0-.37-.26.7.7,0,0,1-.24-.13.67.67,0,0,1-.12-.2,1.19,1.19,0,0,0-.31-.28,1.71,1.71,0,0,1-.51-.75c-.37-.13-.46-.44-.68-.7-.06-.07-.21,0-.25-.1s.12-.32.31-.37a2.11,2.11,0,0,1,1.06,0c.09,0,.19,0,.28.06a28.14,28.14,0,0,1,3.07,1.79,6.08,6.08,0,0,0,3.62,1,20.39,20.39,0,0,0,3.76-1c.8-.26,5.4-2.54,6.19-2.82h0l.11,0a8.74,8.74,0,0,1,2-.5Z"/><polygon class="cls-1" points="22.51 32.52 22.51 32.52 22.51 32.52 22.51 32.52"/><path class="cls-1" d="M91.93,45.53h0L90,52l-2.77-2.9-8.47-8.88h0l-1.62,8.92L74,45.2,51.69,16.69h0L37.81,45.17,31.9,40.28l-9.39-7.76h0l-9.09,17.8L8.57,46.64l-3-2.28V60H47.4l.08-.07a13.52,13.52,0,0,0,1.6-1.54,9.6,9.6,0,0,0,1.14-1.84l.64-1.39c.53-1.24.89-2.31.89-2.31a12.93,12.93,0,0,1,.86-1.61l-.64.55a.7.7,0,0,1-.46.23.12.12,0,0,1-.12,0c0-.06,0-.13,0-.2a3.32,3.32,0,0,0-.08-.94,1.31,1.31,0,0,1,.6-1.1,2.61,2.61,0,0,1,1.22-.41c.4-.05.81-.05,1.21-.08a2.81,2.81,0,0,1,1-.5,6.77,6.77,0,0,1,3.12-.17,1.85,1.85,0,0,0,1.24,1.37,33.75,33.75,0,0,0,4.9.65s.36,2.77-.79,3.5-3.76.6-4.48,1a11.7,11.7,0,0,0-1.72,1,4.81,4.81,0,0,0-.78,1.07c0,.06-.05.13-.07.2l-.26,1.4c0,.37,0,.73.06,1.09V60h40V48.73Z"/></g></g></g></svg>